<svg width="345" height="175" viewBox="0 0 345 175" xmlns="http://www.w3.org/2000/svg" xmlns:xlink="http://www.w3.org/1999/xlink"><title>404</title><desc>Created with Sketch.</desc><defs><path id="a" d="M209 0l209 209-209 209L0 209z"/><path id="c" d="M210 0l209 209-209 209L1 209z"/></defs><g fill="none"><g transform="matrix(.985 .174 -.174 .985 22.964 37.165)"><mask id="b"><use xlink:href="#a"/></mask><use xlink:href="#a"/><text mask="url(#b)" font-family="Lato" font-size="180" font-weight="bold" fill="#FEC62A"><tspan x="-56" y="171">404</tspan></text></g><g transform="matrix(.985 .174 -.174 .985 -145.487 -251.7)"><mask id="d"><use xlink:href="#c"/></mask><use xlink:href="#c"/><path d="M259.81 336.95v12.87c0 1.2-.39 2.235-1.17 3.105-.78.87-1.89 1.305-3.33 1.305h-11.88V386h-19.35v-31.77h-54.9c-1.5 0-2.82-.465-3.96-1.395-1.14-.93-1.86-2.085-2.16-3.465l-2.34-11.25 61.65-82.35h21.06v81.18h16.38zm-35.73 0v-42.57c0-4.02.27-8.46.81-13.32l-40.41 55.89h39.6zm140.22-16.02c0 11.34-1.215 21.195-3.645 29.565-2.43 8.37-5.79 15.285-10.08 20.745-4.29 5.46-9.36 9.525-15.21 12.195-5.85 2.67-12.165 4.005-18.945 4.005-6.78 0-13.065-1.335-18.855-4.005-5.79-2.67-10.815-6.735-15.075-12.195s-7.59-12.375-9.99-20.745c-2.4-8.37-3.6-18.225-3.6-29.565 0-11.4 1.2-21.27 3.6-29.61 2.4-8.34 5.73-15.24 9.99-20.7 4.26-5.46 9.285-9.525 15.075-12.195 5.79-2.67 12.075-4.005 18.855-4.005 6.78 0 13.095 1.335 18.945 4.005s10.92 6.735 15.21 12.195c4.29 5.46 7.65 12.36 10.08 20.7 2.43 8.34 3.645 18.21 3.645 29.61zm-22.95 0c0-9.42-.69-17.22-2.07-23.4s-3.225-11.1-5.535-14.76-4.965-6.225-7.965-7.695c-3-1.47-6.12-2.205-9.36-2.205-3.18 0-6.255.735-9.225 2.205-2.97 1.47-5.595 4.035-7.875 7.695-2.28 3.66-4.095 8.58-5.445 14.76-1.35 6.18-2.025 13.98-2.025 23.4 0 9.42.675 17.22 2.025 23.4 1.35 6.18 3.165 11.1 5.445 14.76 2.28 3.66 4.905 6.225 7.875 7.695 2.97 1.47 6.045 2.205 9.225 2.205 3.24 0 6.36-.735 9.36-2.205 3-1.47 5.655-4.035 7.965-7.695 2.31-3.66 4.155-8.58 5.535-14.76s2.07-13.98 2.07-23.4zm91.53 16.02v-42.57c0-4.02.27-8.46.81-13.32l-40.41 55.89h39.6zm35.73 0v12.87c0 1.2-.39 2.235-1.17 3.105-.78.87-1.89 1.305-3.33 1.305h-11.88V386h-19.35v-31.77h-54.9c-1.5 0-2.82-.465-3.96-1.395-1.14-.93-1.86-2.085-2.16-3.465l-2.34-11.25 61.65-82.35h21.06v81.18h16.38z" fill="#FEC62A" mask="url(#d)"/></g></g></svg>