<svg width="199" height="24" viewBox="0 0 199 24" xmlns="http://www.w3.org/2000/svg"><title>BEESWAX</title><desc>Created with Sketch.</desc><path d="M10.075 22.067c1.975 0 3.545-.428 4.708-1.284 1.163-.855 1.745-2.016 1.745-3.483v-.067c0-1.444-.598-2.56-1.794-3.35-1.197-.79-2.936-1.183-5.22-1.183H1.713v9.367h8.363zM97.318 47.1c.856 0 1.646-.106 2.37-.317.725-.21 1.35-.516 1.877-.916.527-.4.938-.9 1.235-1.5.296-.6.444-1.29.444-2.067v-.067c0-1.29-.494-2.327-1.482-3.116-.987-.79-2.414-1.184-4.28-1.184h-7.77V29.1h7.606zM44 18.333h9.515c1.317 0 2.486.184 3.507.55 1.02.367 1.85.873 2.485 1.517.988 1 1.482 2.222 1.482 3.667v.066c0 .8-.116 1.5-.347 2.1-.23.6-.532 1.123-.905 1.567-.373.444-.796.817-1.268 1.117-.472.3-.938.55-1.4.75.68.177 1.34.416 1.977.716.636.3 1.19.678 1.662 1.134.47.455.85.99 1.135 1.6.285.61.428 1.316.428 2.116v.067c0 .978-.197 1.86-.593 2.65-.395.79-.954 1.456-1.68 2-.723.544-1.59.967-2.6 1.267-1.01.3-2.14.45-3.39.45H44V18.333zm28.504 0H88.9v1.6H74.217V29.1H87.42v1.6H74.215v9.367h14.85v1.6H72.503V18.333zm26.793 0h16.396v1.6H101.01V29.1h13.202v1.6H101.01v9.367h14.848v1.6h-16.56V18.333zM133.892 42c-1.844 0-3.506-.31-4.988-.933-1.482-.623-2.914-1.556-4.297-2.8l1.12-1.3c.636.6 1.267 1.116 1.893 1.55.626.433 1.268.79 1.926 1.066.66.278 1.35.49 2.074.634.725.144 1.515.216 2.37.216.857 0 1.647-.116 2.372-.35.724-.233 1.338-.555 1.843-.966.505-.41.9-.9 1.186-1.467.286-.567.43-1.183.43-1.85v-.067c0-.622-.095-1.177-.28-1.666-.188-.49-.528-.934-1.022-1.334s-1.158-.76-1.992-1.083c-.834-.322-1.91-.617-3.226-.883-1.383-.29-2.57-.628-3.556-1.017-.988-.39-1.795-.844-2.42-1.367-.626-.522-1.08-1.127-1.367-1.816-.285-.69-.428-1.478-.428-2.367v-.067c0-.866.186-1.672.56-2.416.372-.745.888-1.395 1.547-1.95.658-.556 1.437-.99 2.337-1.3.9-.31 1.888-.467 2.963-.467 1.67 0 3.112.233 4.33.7 1.218.467 2.41 1.178 3.572 2.133l-1.087 1.367c-1.098-.956-2.2-1.633-3.31-2.033-1.108-.4-2.298-.6-3.57-.6-.858 0-1.63.116-2.323.35-.69.233-1.284.55-1.778.95-.493.4-.872.866-1.135 1.4-.264.533-.396 1.1-.396 1.7v.066c0 .623.095 1.184.28 1.684.188.5.528.955 1.022 1.366.494.41 1.18.784 2.058 1.117.878.333 1.997.644 3.358.933 2.678.556 4.61 1.34 5.795 2.35 1.185 1.01 1.778 2.373 1.778 4.084v.066c0 .934-.19 1.795-.576 2.584-.384.79-.91 1.46-1.58 2.016s-1.47.99-2.403 1.3c-.932.31-1.958.467-3.078.467zm16.224-23.667h1.91l7.243 20.767 6.748-20.833h1.317l6.75 20.833 7.243-20.767h1.778l-8.363 23.5h-1.383l-6.75-20.266-6.75 20.266h-1.38l-8.364-23.5zm58.4 15.234l-6.06-13.5-6.09 13.5h12.15zm-6.85-15.4h1.648l10.733 23.5h-1.877l-2.93-6.534h-13.598l-2.93 6.534h-1.778l10.733-23.5zm29.428 11.6l-8.857-11.434h2.04l7.87 10.267 7.836-10.267h2.01l-8.825 11.4 9.153 11.934h-2.04l-8.2-10.767-8.164 10.767h-2.008l9.186-11.9z" fill="#FEC62A"/></svg>