<svg width="272" height="272" viewBox="0 0 272 272" xmlns="http://www.w3.org/2000/svg"><title>laptop</title><desc>Created with Sketch.</desc><g fill="none"><path d="M136 0c75.11 0 136 60.887 136 136 0 75.107-60.89 136-136 136S0 211.107 0 136C0 60.887 60.89 0 136 0z" id="Shape" fill="#EFC75E"/><path d="M21.56 209.44C45.754 247.058 87.95 272 136 272s90.247-24.942 114.44-62.56H21.56z" id="Shape" fill="#923604"/><path d="M250.44 209.44H21.56c1.79 2.783 3.654 5.52 5.64 8.16h217.603c1.98-2.64 3.846-5.377 5.636-8.16z" id="Shape" fill="#7B2B00"/><path d="M165.433 251.265c4.053-2.374 5.908-3.457 4.586-8.834-2.465-10.033.888-23.943 3.77-33h-5.547c-2.932 9.805-6.253 25.09-2.143 30.55.76 1.004.554 2.443-.468 3.2-1.023.755-2.467.546-3.232-.464-5.39-7.16-1.82-23.538 1.02-33.287h-2.38c-2.03 6.704-4.953 18.365-6.245 33.202-1.553 17.797-3.44 25.963-11.92 29.346 3.57-.18 7.09-.536 10.582-.987.688-13.085 7.183-16.926 11.976-19.725zm17.22-41.836h-4c-2.797 8.5-6.472 22.488-4.15 31.916 2.13 8.67-2.57 11.426-6.725 13.855-4.393 2.566-8.922 5.224-9.678 15.127 2.18-.362 4.344-.77 6.487-1.227.54-2.597 1.57-4.966 3.226-6.95 4.562-5.44 10.842-6.63 17.237-3.26 1.28.674 2.543 1.545 3.767 2.56 1.784-.76 3.54-1.568 5.285-2.403-1.774-2.295-3.743-4.6-5.905-6.91-13.74-14.684-10.162-31.87-5.544-42.708zm-11.288 55.642c-.7.835-1.22 1.795-1.634 2.832 4.788-1.227 9.46-2.73 14.025-4.453l-.87-.518c-4.475-2.36-8.35-1.638-11.52 2.14zm67.285-40.087c1.697-1.972 3.343-3.985 4.926-6.047.394-3.033.91-6.17 1.692-9.51h-5.14c.083 4.002-.145 9.627-1.478 15.557zM150.2 242.24c1.255-14.424 3.953-25.76 6.018-32.808h-6.082c-1.058 8.6-4.915 24-18.956 31.748-10.22 5.636-13.782 14.992-12.014 21.33 1.284 4.6 5.228 7.134 10.823 6.966 16.04-.498 18.117-3.3 20.21-27.236zm82.27-32.81c.245 1.838.403 3.834.403 5.945 0 9.583-3.26 21.314-16.715 29.044-8.377 4.808-14.44 2.937-18.044.513-6.835-4.586-10.673-15.5-9.134-25.968.54-3.655 1.708-6.854 3.36-9.536h-4.76c-4.53 9.492-8.96 25.75 4 39.6 2.49 2.662 4.676 5.3 6.678 7.926 12.06-6.264 23.063-14.275 32.678-23.72 4.08-8.352 4.66-18 4.545-23.807h-3.01zm-129.553 0h-7.992c-3.223 1.397-7.556 2.512-13.404 2.703-15.625.53-26.228 2.657-26.33 2.67-1.25.257-2.468-.54-2.727-1.778-.247-1.25.547-2.443 1.798-2.698.18-.033 2.112-.42 5.414-.898H48.392c-1.35 8.562-5.64 15.014-12.153 18.832.668.73 1.36 1.44 2.044 2.157l.384-.262c10-6.773 21.33-14.448 37.424-14.448 13.39 0 21.703-2.965 26.825-6.28zm147.092 0l-.118.546.348-.547h-.23zm-135.29 54.293c-2.25-8.065 1.916-19.763 14.22-26.547 11.836-6.528 15.438-19.92 16.52-27.747h-2.905c-2.116 13.94-10.673 20.516-18.335 26.397-9.662 7.417-18.012 13.796-15.912 32.974l.084.526c3.745.775 7.553 1.366 11.402 1.828-2.42-1.768-4.194-4.27-5.075-7.43zm6.67-31.508c7.437-5.712 14.51-11.163 16.49-22.786h-5.976c-2.277 7.98-9.577 20.505-32.692 27.588-13.497 4.134-25.318 9.52-33.965 15.172 1.04.637 2.1 1.238 3.158 1.85 3.92-1.28 8.196-1.616 12.053-.278 3.24 1.12 7.208 3.814 9.006 10.168 4.607 1.69 9.345 3.11 14.173 4.292-1.914-20.846 8.065-28.576 17.754-36.007zM43.72 209.43h-7.696c.462 1.598.174 3.342-.9 4.97-1.227 1.862-3.537 3.586-6.564 4.718 1.482 1.928 3.014 3.808 4.594 5.646 7.314-3.95 9.757-11.016 10.565-15.335zm35.214 48.646c-1.294-.446-2.703-.617-4.15-.58 2.826 1.434 5.69 2.805 8.622 4.043-1.115-1.652-2.606-2.816-4.472-3.464zM31.264 211.9c.582-.882.334-1.288.244-1.44-.195-.324-.617-.685-1.308-1.03h-8.448c1.262 1.97 2.568 3.91 3.928 5.806 2.788-.786 4.784-2.124 5.584-3.337zm169.932 20.426c.538.637 2.18 2.576 6.98.424 8.948-4.017 12.07-14.195 9.375-21.17-.306-.796-.687-1.504-1.11-2.15h-6.663c3.73 2.368 4.88 5.502 5.195 7.417.626 3.73-.946 7.77-3.905 10.025-1.01.765-2.46.585-3.235-.418-.777-1-.587-2.435.422-3.205 1.627-1.238 2.508-3.57 2.165-5.664-.414-2.497-2.416-4.425-5.784-5.567-.824-.28-1.713.254-2.64 1.598-3.13 4.512-4.116 14.79-.8 18.708zm-74.118-22.897h-5.464c-3.94 6.492-12.29 15.39-29.153 17.89-11.986 1.775-27.33 8.346-38.895 16.8 2.423 1.86 4.9 3.645 7.447 5.345 10.374-7.108 24.39-13 36.837-16.815 19.956-6.115 26.857-16.36 29.228-23.22zm73.625 31.72c3.656 2.448 8.076 2.22 13.14-.69 14.653-8.417 15.437-22.158 14.077-31.03h-6.284l.224.513c3.435 8.89-.098 21.733-11.786 26.972-6.953 3.117-10.763.296-12.417-1.657-4.725-5.595-3.637-18.21.536-24.23.424-.617.884-1.13 1.363-1.6h-1.467c-2.323 2.455-3.915 5.947-4.543 10.2-1.273 8.662 1.798 17.926 7.156 21.522zm-84.64-31.72h-5.89c-5.086 5.1-15.04 10.852-34.08 10.852-14.515 0-25.145 7.096-34.518 13.445 2.682 2.614 5.457 5.133 8.345 7.513 12.382-9.297 28.974-16.533 41.86-18.445 13.084-1.945 20.352-8.1 24.282-13.366z" id="Shape" fill="#9B481A"/><path d="M21.56 209.435h228.88c3.347-5.207 6.355-10.657 8.98-16.32H12.58c2.625 5.663 5.63 11.113 8.98 16.32z" id="Shape" fill="#A34A1B"/><path d="M231.2 182.24v2.72c0 4.504-3.653 8.16-8.16 8.16H48.96c-4.507 0-8.16-3.656-8.16-8.16v-2.72h190.4z" id="Shape" fill="#F3F3F3"/><path d="M123.76 179.52h24.48c2.252 0 4.08 1.828 4.08 4.08s-1.828 4.08-4.08 4.08h-24.48c-2.252 0-4.08-1.828-4.08-4.08s1.828-4.08 4.08-4.08z" id="Shape" fill="#D5D5D5"/><path d="M65.28 76.16h141.44c3.003 0 5.44 2.434 5.44 5.44v100.64H59.84V81.6c0-3.006 2.437-5.44 5.44-5.44z" id="Shape" fill="#36434F"/><path d="M68 84.32h136v89.76H68V84.32z" id="Shape" fill="#465765"/><path d="M103.36 163.2h65.28c4.507 0 8.16 3.65 8.16 8.16v2.72l-81.9-.027.3-2.693c0-4.51 3.653-8.16 8.16-8.16z" id="Shape" fill="#7E8A94"/><path d="M111.52 157.76c3.003 0 5.44 2.434 5.44 5.44 0 3.003-2.437 5.44-5.44 5.44-3.003 0-5.44-2.437-5.44-5.44 0-3.006 2.437-5.44 5.44-5.44z" id="Shape" fill="#E4E7E7"/><path d="M127.84 157.76c3.003 0 5.44 2.434 5.44 5.44 0 3.003-2.437 5.44-5.44 5.44-3.003 0-5.44-2.437-5.44-5.44 0-3.006 2.437-5.44 5.44-5.44z" id="Shape" fill="#EFC75E"/><path d="M144.16 157.76c3.003 0 5.44 2.434 5.44 5.44 0 3.003-2.437 5.44-5.44 5.44-3.003 0-5.44-2.437-5.44-5.44 0-3.006 2.437-5.44 5.44-5.44zm16.32 0c3.003 0 5.44 2.434 5.44 5.44 0 3.003-2.437 5.44-5.44 5.44-3.003 0-5.44-2.437-5.44-5.44 0-3.006 2.437-5.44 5.44-5.44z" id="Shape" fill="#E4E7E7"/><path d="M184.498 217.6h4.75c.61-3.082 1.65-5.83 3.09-8.16h-4.76c-1.122 2.347-2.234 5.116-3.08 8.16zm1.098-215.024c-.824-.278-1.713.256-2.64 1.6-.735 1.057-1.336 2.447-1.807 3.984h10.23v-.016c-.414-2.497-2.413-4.426-5.784-5.568zM174.94 8.16h1.438c.623-2.524 1.564-4.828 2.775-6.572.42-.612.878-1.126 1.354-1.588h-1.463c-1.934 2.045-3.32 4.833-4.104 8.16zM202.82.506c.905 2.342 1.31 4.967 1.226 7.654h5.212c.187-2.943-.008-5.736-.38-8.16h-6.282l.224.506zm-6.888 6.9l.07.754h3.4c.1-2.113-.178-4.18-.89-6.02-.308-.79-.686-1.498-1.105-2.14h-6.66c3.722 2.37 4.87 5.494 5.185 7.407zM6.64 5.797c2.785-.786 4.784-2.124 5.584-3.337.582-.882.334-1.288.244-1.44C12.273.702 11.854.34 11.17 0H2.718c1.26 1.967 2.565 3.9 3.923 5.796zM97.014 0h-5.89c-2.898 2.905-7.392 6.014-14.232 8.16h10.983c4.156-2.492 7.107-5.44 9.14-8.16zM24.68 0h-7.694c.457 1.594.172 3.337-.903 4.96-.767 1.16-1.996 2.253-3.517 3.2h9.03c1.77-2.916 2.658-5.908 3.083-8.16zm59.183 0h-8C72.64 1.393 68.32 2.502 62.482 2.693c-15.625.53-26.228 2.657-26.33 2.67-1.25.257-2.468-.54-2.727-1.778-.247-1.25.547-2.443 1.798-2.698C35.4.854 37.317.473 40.583 0h-11.23c-.474 2.992-1.322 5.707-2.484 8.16h16.755c4.105-1.175 8.544-1.89 13.43-1.89 13.38 0 21.686-2.96 26.81-6.27zm63.186 8.16h5.41c.72-2.954 1.516-5.736 2.286-8.16H149.2c-.734 2.453-1.493 5.255-2.15 8.16zm69.043 0c.324-3.093.395-5.92.348-8.16h-3.01c.245 1.833.403 3.824.403 5.935 0 .73-.027 1.472-.065 2.225h2.325zM226.225 0h-5.138c.05 2.268-.035 5.09-.332 8.16h3.982c.37-2.62.822-5.307 1.488-8.16zM95.698 8.16h7.765c2.323-2.92 3.735-5.753 4.573-8.16h-5.468c-1.534 2.53-3.753 5.418-6.87 8.16zM230.966 0l-.114.536.343-.536h-.23zm-121.83 8.16h7.054c1.186-2.364 2.114-5.027 2.65-8.16h-5.976c-.688 2.396-1.842 5.212-3.727 8.16zm20.336 0h5.58c.728-3.123 1.46-5.886 2.123-8.16h-6.08c-.287 2.317-.788 5.138-1.623 8.16zm10.333 0h2.49c.64-2.965 1.384-5.764 2.083-8.16h-2.38c-.664 2.195-1.423 4.967-2.193 8.16zm-18.556 0h3.364c.922-2.997 1.48-5.83 1.803-8.16h-2.905c-.467 3.055-1.253 5.736-2.263 8.16zm35.985 0h3.623c.748-2.97 1.72-5.73 2.755-8.16h-4c-.78 2.358-1.614 5.163-2.378 8.16z" id="Shape" fill="#88411A"/><path d="M101.225 193.12h-9.697c-3.85 2.124-8.405 4.09-13.87 5.753-9.843 2.986-18.808 6.63-26.313 10.556h33.908c3.484-6.795 9.153-11.115 14.718-15.344l1.255-.966zm16.85-179.436c.343-3.9.794-7.548 1.31-10.964h-9.37c-2.72 3.797-6.3 7.29-11.075 9.898-3.337 1.822-5.954 4.037-7.926 6.41h26.54c.176-1.666.353-3.415.52-5.344zm19.94.188c-.84-3.384-.97-7.22-.718-11.152h-5.146c-.05 3.667.466 6.795 1.92 8.707.763 1.01.554 2.437-.474 3.193-1.03.748-2.48.54-3.248-.468-2.092-2.752-2.832-6.862-2.804-11.432h-3.46c-.547 3.533-1.03 7.31-1.388 11.353-.155 1.755-.312 3.384-.48 4.956h15.693c.625-1.19.71-2.72.106-5.158zM65.41 4.118c1.458-.44 2.83-.914 4.15-1.398H45.22c-10.268 3.75-20.89 9.604-28.808 16.31h14.803C41.287 12.775 53.997 7.58 65.408 4.117zm-63.15-.095L4.246 2.72h-2.58l.592 1.303zm94.424 4.61c2.952-1.615 5.39-3.645 7.412-5.913h-6.4c-1.9 1.632-3.857 3.117-5.76 4.57-4.758 3.612-9.192 6.995-12.24 11.74h5.673c2.437-3.904 6.156-7.582 11.315-10.397zM33.732 2.72H12.518c-1.373.892-2.717 1.795-4.033 2.676-1.393.936-2.77 1.834-4.146 2.72 1.847 3.54 3.846 6.98 5.993 10.328C16.604 12.452 24.96 6.98 33.734 2.72zm177.628 0h-6.155c-1.515 4.07-3.664 8.065-6.732 11.555-1.19 1.354-2.168 2.992-3.03 4.754h18.665c-1.524-4.83-2.54-10.212-2.748-16.31zm32.393 9.23c1.31-2.318 2.532-4.698 3.704-7.103-.07-.713-.103-1.423-.103-2.124h-5.723c.183 2.812.85 5.927 2.123 9.226zm-11.832 7.08h7.58l1.302-2.163c-2.478-5.073-3.637-9.86-3.863-14.147H227.2c.28 5.154 2.002 10.826 4.72 16.31zm-79.25 0c-3.734-5.367-5.48-10.93-5.945-16.31h-4.774c-.257 3.596-.167 7.072.575 10.06.63 2.555.656 4.582.283 6.25h9.863zM222.49 2.72h-6.534c.213 6.153 1.31 11.527 2.965 16.31h7.757c-2.47-5.463-3.972-11.055-4.19-16.31zm-32.083 16.31c1.186-2.955 2.68-5.596 4.556-7.73 2.27-2.588 3.964-5.53 5.248-8.58h-2.644c-2.545 4.84-6.653 9.447-13.126 13.127-8.432 4.798-14.528 2.926-18.156.514-4.135-2.752-7.148-7.797-8.582-13.643h-6.395c.585 5.408 2.674 11.008 7.19 16.31h31.91v.002zM165.82 6.72c-.934-1.092-1.635-2.47-2.136-4h-1.18c1.237 4.276 3.454 7.92 6.38 9.87 3.68 2.443 8.125 2.215 13.223-.685 4.637-2.646 7.89-5.812 10.134-9.185h-6.21c-1.998 2.28-4.55 4.24-7.715 5.652-6.996 3.11-10.83.3-12.496-1.65zm10.583-2.5c.955-.426 1.803-.953 2.625-1.5h-10.296c.207.367.395.77.65 1.074.542.637 2.19 2.57 7.02.425z" fill="#AC5C32"/></g></svg>