<svg width="273" height="273" viewBox="0 0 273 273" xmlns="http://www.w3.org/2000/svg"><title>watch</title><desc>Created with Sketch.</desc><g fill="none"><path d="M136.035.667c-75.11 0-136 60.89-136 135.998 0 75.11 60.89 136.002 136 136.002s136-60.892 136-136.002c.003-75.112-60.89-135.998-136-135.998z" id="Shape" fill="#91D8F0"/><path d="M94.292 261.22c8.637 2.687 17.643 4.535 26.93 5.447V1.33c-9.287.915-18.293 2.763-26.93 5.45v254.44z" id="Shape" fill="#E2574C"/><path d="M148.157 1.33c-4.43-.434-8.92-.666-13.466-.666-4.545 0-9.034.23-13.464.667v265.337c4.43.437 8.92.666 13.465.666 4.547 0 9.04-.23 13.467-.666V1.33z" id="Shape" fill="#E4E7E7"/><path d="M148.157 1.35v265.298c9.283-.915 18.3-2.74 26.93-5.43V6.78c-8.63-2.685-17.647-4.51-26.93-5.43z" id="Shape" fill="#324D5B"/><path d="M207.404 133.995c0-20.003-8.243-38.094-21.545-51.144V64.668c0-3.022-2.505-5.336-5.387-5.336h-2.693c-1.49 0-2.693 1.195-2.693 2.667V74.13c-11.556-7.66-25.447-12.133-40.396-12.133-14.948 0-28.84 4.472-40.395 12.134V61.998c0-1.472-1.206-2.666-2.693-2.666H88.91c-2.885 0-5.387 2.315-5.387 5.337V82.85c-13.3 13.05-21.545 31.142-21.545 51.145 0 20.005 8.244 38.098 21.545 51.146v18.19c0 3.145 2.48 5.33 5.386 5.33H91.6c1.487 0 2.693-1.19 2.693-2.665v-12.13c11.556 7.658 25.447 12.13 40.396 12.13 14.95 0 28.84-4.472 40.397-12.13v12.13c0 1.474 1.204 2.666 2.693 2.666h2.693c2.903 0 5.386-2.185 5.386-5.33v-18.19c13.3-13.047 21.544-31.14 21.544-51.145z" id="Shape" fill="#F5F5F5"/><path d="M134.688 72.667c34.213 0 61.94 27.458 61.94 61.333s-27.727 61.333-61.94 61.333c-34.21 0-61.94-27.464-61.94-61.336s27.733-61.33 61.94-61.33z" id="Shape" fill="#CCD0D2"/><path d="M146.258 118.733l-43.054 42.638c-1.06 1.05-1.06 2.755 0 3.81 1.064 1.047 2.782 1.047 3.846 0l43.054-42.633c1.063-1.05 1.063-2.755 0-3.81-1.064-1.05-2.785-1.05-3.846-.004z" id="Shape" fill="#DE6E65"/><path d="M134.68 144.688c-5.957 0-10.783-4.776-10.783-10.675 0-2.27.725-4.362 1.945-6.09-2.798 1.93-4.638 5.128-4.638 8.757 0 5.9 4.826 10.675 10.783 10.675 3.666 0 6.895-1.822 8.842-4.59-1.746 1.206-3.863 1.923-6.15 1.923z" id="Shape" fill="#AEB2B4"/><path d="M134.688 131.333h43.09c1.49 0 2.693 1.192 2.693 2.664 0 1.472-1.203 2.667-2.692 2.667h-43.09c-1.49 0-2.693-1.195-2.693-2.667 0-1.472 1.204-2.664 2.693-2.664zm-18.35-20.565l22.21 21.992c1.966 1.947 1.966 5.11 0 7.056-1.966 1.947-5.16 1.947-7.126 0l-22.21-21.995c-1.97-1.945-1.97-5.108 0-7.055 1.966-1.946 5.155-1.946 7.126.003z" id="Shape" fill="#324D5B"/><path d="M134.68 123.333c5.952 0 10.78 4.782 10.78 10.68 0 5.9-4.828 10.675-10.78 10.675-5.957 0-10.783-4.776-10.783-10.675 0-5.898 4.826-10.68 10.783-10.68z" id="Shape" fill="#E4E7E7"/><path d="M134.688 128.667c2.974 0 5.387 2.386 5.387 5.33 0 2.947-2.413 5.336-5.387 5.336-2.973 0-5.386-2.39-5.386-5.336 0-2.944 2.413-5.33 5.386-5.33z" id="Shape" fill="#324D5B"/><path d="M125.41 139.38l-2.692 2.668c.934 1.58 2.25 2.883 3.843 3.808l2.694-2.667c-1.592-.926-2.91-2.233-3.843-3.81z" id="Shape" fill="#D96860"/><path d="M134.688 72.667c-17.787 0-33.816 7.437-45.11 19.33 11.08-10.328 26-16.664 42.417-16.664 34.213 0 61.94 27.46 61.94 61.334 0 16.258-6.4 31.03-16.83 42.008 12.013-11.187 19.524-27.06 19.524-44.675.002-33.875-27.73-61.333-61.942-61.333z" fill="#B7BBBD"/></g></svg>