<svg width="272" height="272" viewBox="0 0 272 272" xmlns="http://www.w3.org/2000/svg"><title>wrench</title><desc>Created with Sketch.</desc><g fill="none"><path d="M136 0c75.11 0 136 60.89 136 136s-60.89 136-136 136S0 211.11 0 136 60.89 0 136 0z" id="Shape" fill="#E2574C"/><path d="M201.223 104.146c-1.643-.334-3.354.174-4.548 1.366l-38.687 39.45c-3.9 3.906-17.013 1.053-25.84-2.39-3.448-8.827-6.3-21.943-2.41-25.84l39.645-38.5c1.19-1.188 1.708-2.893 1.365-4.536-.34-1.65-1.496-3.01-3.05-3.632-24.697-9.82-52.802-4.03-71.59 14.748-16.586 16.587-22.733 39.846-17.864 61.467-.626 10.716-10.37 23.274-15.407 28.396l-38.71 38.626c9.917 14.33 22.51 26.654 37.065 36.26l36.875-36.806c5.17-5.095 19.135-14.7 29.773-15.8 1.605.103 4.926.323 5.663.486l-.005-.062c20.742 3.013 41.694-3.76 56.597-18.643 18.787-18.757 24.59-46.852 14.765-71.534-.62-1.566-1.986-2.714-3.637-3.057z" id="Shape" fill="#CD4F45"/><path d="M201.223 101.426c-1.643-.334-3.354.174-4.548 1.366l-38.687 39.45c-3.9 3.906-17.013 1.053-25.84-2.39-3.448-8.827-6.3-21.943-2.41-25.84l39.645-38.5c1.19-1.188 1.708-2.893 1.365-4.536-.34-1.65-1.496-3.01-3.05-3.632-24.697-9.82-52.802-4.03-71.59 14.748-16.586 16.587-22.733 39.846-17.864 61.467-.626 10.716-10.37 23.274-15.407 28.396l-39.83 39.742c9.715 14.473 22.137 26.974 36.542 36.782l38.514-38.447c5.17-5.095 19.135-14.7 29.773-15.8 1.605.103 4.926.323 5.663.486l-.005-.063c20.743 3.014 41.695-3.76 56.598-18.643 18.787-18.757 24.588-46.852 14.764-71.533-.618-1.563-1.983-2.71-3.634-3.054z" id="Shape" fill="#EDEDED"/><path d="M209.065 121.192c.345 2.954.508 5.916.462 8.868-.2-7.698-1.714-15.43-4.67-22.857-.62-1.564-1.983-2.714-3.637-3.054-1.643-.336-3.354.173-4.548 1.364l-38.684 39.448c-3.9 3.906-17.013 1.053-25.84-2.39-.3-.773-.598-1.58-.89-2.413l-91.706 91.71c6.11 6.15 12.808 11.714 20 16.61l38.515-38.447c5.17-5.095 19.135-14.7 29.773-15.8 1.605.103 4.926.323 5.663.486l-.005-.063c20.742 3.014 41.694-3.76 56.597-18.643 14.64-14.617 21.35-34.9 18.97-54.822zM130.545-96.9l-.398-1.265.397 1.265zm2.21 10.143c-.106-.79-.226-1.572-.364-2.356.137.784.26 1.57.365 2.356zm-.873-4.934l-.473-2.052.472 2.05z" id="Shape" fill="#E1E1E1"/><path d="M96.108 84.812c18.788-18.78 46.893-24.57 71.59-14.748 1.453.58 2.533 1.823 2.947 3.33.23-.775.274-1.602.103-2.418-.34-1.65-1.496-3.01-3.05-3.632-24.697-9.82-52.802-4.03-71.59 14.748-13.085 13.086-19.646 30.328-19.45 47.64.487-16.39 7.05-32.52 19.45-44.92zm-33.27 87.144l-39.832 39.742 1.118 1.604 38.71-38.626c5.035-5.125 14.778-17.68 15.407-28.397l-.187-.983c-1.48 10.303-10.45 21.81-15.216 26.66z" id="Shape" fill="#F4F4F4"/><path d="M78.094 184.19l-42.992 42.99c3.046 3.367 6.258 6.588 9.626 9.637l42.997-42.998c2.66-2.664 2.66-6.972 0-9.632-2.66-2.66-6.97-2.658-9.63.002z" id="Shape" fill="#CCD0D2"/><path d="M78.094 184.19l-42.992 42.99 1.316 1.406 41.676-41.676c2.663-2.66 6.97-2.66 9.63 0 .983.982 1.595 2.19 1.854 3.457.44-2.165-.174-4.496-1.853-6.177-2.66-2.66-6.97-2.66-9.63 0z" fill="#B8BCBE"/></g></svg>