<?xml version="1.0" encoding="UTF-8" standalone="no"?>
<svg width="345px" height="175px" viewBox="0 0 345 175" version="1.1" xmlns="http://www.w3.org/2000/svg" xmlns:xlink="http://www.w3.org/1999/xlink" xmlns:sketch="http://www.bohemiancoding.com/sketch/ns">
    <!-- Generator: Sketch 3.2.2 (9983) - http://www.bohemiancoding.com/sketch -->
    <title>404</title>
    <desc>Created with Sketch.</desc>
    <defs>
        <polygon id="path-1" points="209 0 418 209 209 418 0 209 "></polygon>
        <polygon id="path-3" points="210 9.76996262e-14 419 209 210 418 1 209 "></polygon>
    </defs>
    <g id="Welcome" stroke="none" stroke-width="1" fill="none" fill-rule="evenodd" sketch:type="MSPage">
        <g id="-404-2" sketch:type="MSArtboardGroup" transform="translate(-334.000000, -355.000000)">
            <g id="404" sketch:type="MSLayerGroup" transform="translate(161.000000, 64.000000)">
                <g id="right-+--406" transform="translate(459.000000, 498.000000) rotate(10.000000) translate(-459.000000, -498.000000) translate(250.000000, 289.000000)">
                    <mask id="mask-2" sketch:name="right" fill="white">
                        <use xlink:href="#path-1"></use>
                    </mask>
                    <use id="right" sketch:type="MSShapeGroup" xlink:href="#path-1"></use>
                    <text id="-406" sketch:type="MSTextLayer" mask="url(#mask-2)" font-family="Lato" font-size="180" font-weight="bold" fill="#FEC62A">
                        <tspan x="-56" y="171">404</tspan>
                    </text>
                </g>
                <g id="Path-+--405" transform="translate(243.420772, 243.405580) rotate(10.000000) translate(-243.420772, -243.405580) translate(33.920772, 33.905580)">
                    <mask id="mask-4" sketch:name="Path" fill="white">
                        <use xlink:href="#path-3"></use>
                    </mask>
                    <use id="Path" sketch:type="MSShapeGroup" xlink:href="#path-3"></use>
                    <path d="M259.81,336.95 L259.81,349.82 C259.81,351.020006 259.420004,352.054996 258.64,352.925 C257.859996,353.795004 256.750007,354.23 255.31,354.23 L243.43,354.23 L243.43,386 L224.08,386 L224.08,354.23 L169.18,354.23 C167.679993,354.23 166.360006,353.765005 165.22,352.835 C164.079994,351.904995 163.360002,350.750007 163.06,349.37 L160.72,338.12 L222.37,255.77 L243.43,255.77 L243.43,336.95 L259.81,336.95 Z M224.08,336.95 L224.08,294.38 C224.08,290.35998 224.349997,285.920024 224.89,281.06 L184.48,336.95 L224.08,336.95 Z M364.3,320.93 C364.3,332.270057 363.085012,342.124958 360.655,350.495 C358.224988,358.865042 354.865021,365.779973 350.575,371.24 C346.284979,376.700027 341.215029,380.764987 335.365,383.435 C329.514971,386.105013 323.200034,387.44 316.42,387.44 C309.639966,387.44 303.355029,386.105013 297.565,383.435 C291.774971,380.764987 286.750021,376.700027 282.49,371.24 C278.229979,365.779973 274.900012,358.865042 272.5,350.495 C270.099988,342.124958 268.9,332.270057 268.9,320.93 C268.9,309.529943 270.099988,299.660042 272.5,291.32 C274.900012,282.979958 278.229979,276.080027 282.49,270.62 C286.750021,265.159973 291.774971,261.095013 297.565,258.425 C303.355029,255.754987 309.639966,254.42 316.42,254.42 C323.200034,254.42 329.514971,255.754987 335.365,258.425 C341.215029,261.095013 346.284979,265.159973 350.575,270.62 C354.865021,276.080027 358.224988,282.979958 360.655,291.32 C363.085012,299.660042 364.3,309.529943 364.3,320.93 Z M341.35,320.93 C341.35,311.509953 340.660007,303.710031 339.28,297.53 C337.899993,291.349969 336.055012,286.430018 333.745,282.77 C331.434988,279.109982 328.780015,276.545007 325.78,275.075 C322.779985,273.604993 319.660016,272.87 316.42,272.87 C313.239984,272.87 310.165015,273.604993 307.195,275.075 C304.224985,276.545007 301.600011,279.109982 299.32,282.77 C297.039989,286.430018 295.225007,291.349969 293.875,297.53 C292.524993,303.710031 291.85,311.509953 291.85,320.93 C291.85,330.350047 292.524993,338.149969 293.875,344.33 C295.225007,350.510031 297.039989,355.429982 299.32,359.09 C301.600011,362.750018 304.224985,365.314993 307.195,366.785 C310.165015,368.255007 313.239984,368.99 316.42,368.99 C319.660016,368.99 322.779985,368.255007 325.78,366.785 C328.780015,365.314993 331.434988,362.750018 333.745,359.09 C336.055012,355.429982 337.899993,350.510031 339.28,344.33 C340.660007,338.149969 341.35,330.350047 341.35,320.93 Z M432.88,336.95 L432.88,294.38 C432.88,290.35998 433.149997,285.920024 433.69,281.06 L393.28,336.95 L432.88,336.95 Z M468.61,336.95 L468.61,349.82 C468.61,351.020006 468.220004,352.054996 467.44,352.925 C466.659996,353.795004 465.550007,354.23 464.11,354.23 L452.23,354.23 L452.23,386 L432.88,386 L432.88,354.23 L377.98,354.23 C376.479993,354.23 375.160006,353.765005 374.02,352.835 C372.879994,351.904995 372.160002,350.750007 371.86,349.37 L369.52,338.12 L431.17,255.77 L452.23,255.77 L452.23,336.95 L468.61,336.95 Z" id="-405" fill="#FEC62A" sketch:type="MSShapeGroup" mask="url(#mask-4)"></path>
                </g>
            </g>
        </g>
    </g>
</svg>