<?xml version="1.0" encoding="UTF-8" standalone="no"?>
<svg width="199px" height="24px" viewBox="0 0 199 24" version="1.1" xmlns="http://www.w3.org/2000/svg" xmlns:xlink="http://www.w3.org/1999/xlink" xmlns:sketch="http://www.bohemiancoding.com/sketch/ns">
    <!-- Generator: Sketch 3.2.2 (9983) - http://www.bohemiancoding.com/sketch -->
    <title>BEESWAX</title>
    <desc>Created with Sketch.</desc>
    <defs></defs>
    <g id="Welcome" stroke="none" stroke-width="1" fill="none" fill-rule="evenodd" sketch:type="MSPage">
        <g id="Desktop" sketch:type="MSArtboardGroup" transform="translate(-44.000000, -18.000000)" fill="#FEC62A">
            <g id="Header" sketch:type="MSLayerGroup">
                <path d="M54.0749035,40.0666667 C56.0503846,40.0666667 57.6197711,39.6388932 58.78311,38.7833333 C59.9464489,37.9277735 60.5281097,36.766674 60.5281097,35.3 L60.5281097,35.2333333 C60.5281097,33.7888817 59.9299868,32.6722262 58.7337232,31.8833333 C57.5374597,31.0944405 55.7979649,30.7 53.5151866,30.7 L45.7120751,30.7 L45.7120751,40.0666667 L54.0749035,40.0666667 Z M53.3176395,29.1 C54.1736813,29.1 54.9638619,28.9944455 55.688205,28.7833333 C56.4125481,28.5722212 57.0381078,28.2666687 57.5649027,27.8666667 C58.0916977,27.4666647 58.5032501,26.9666697 58.7995723,26.3666667 C59.0958945,25.7666637 59.2440533,25.0777817 59.2440533,24.3 L59.2440533,24.2333333 C59.2440533,22.944438 58.7501904,21.9055595 57.7624499,21.1166667 C56.7747093,20.3277738 55.3479943,19.9333333 53.4822621,19.9333333 L45.7120751,19.9333333 L45.7120751,29.1 L53.3176395,29.1 Z M44,18.3333333 L53.5151866,18.3333333 C54.8321741,18.3333333 56.0009829,18.5166648 57.0216481,18.8833333 C58.0423134,19.2500018 58.8709056,19.7555523 59.5074495,20.4 C60.4951901,21.400005 60.989053,22.622215 60.989053,24.0666667 L60.989053,24.1333333 C60.989053,24.9333373 60.8738183,25.6333303 60.6433455,26.2333333 C60.4128727,26.8333363 60.1110676,27.3555533 59.7379211,27.8 C59.3647747,28.2444467 58.9422476,28.6166652 58.4703271,28.9166667 C57.9984066,29.2166682 57.5319805,29.4666657 57.0710349,29.6666667 C57.7514784,29.8444453 58.4099623,30.0833318 59.0465062,30.3833333 C59.6830501,30.6833348 60.237274,31.0611088 60.7091945,31.5166667 C61.181115,31.9722245 61.5597432,32.5055525 61.8450905,33.1166667 C62.1304378,33.7277808 62.2731093,34.4333293 62.2731093,35.2333333 L62.2731093,35.3 C62.2731093,36.2777827 62.0755641,37.1611072 61.6804679,37.95 C61.2853717,38.7388928 60.7256604,39.4055528 60.0013173,39.95 C59.2769742,40.4944472 58.4099705,40.9166652 57.4002801,41.2166667 C56.3905898,41.5166682 55.2601925,41.6666667 54.0090545,41.6666667 L44,41.6666667 L44,18.3333333 Z M72.5044036,18.3333333 L88.9008151,18.3333333 L88.9008151,19.9333333 L74.2164787,19.9333333 L74.2164787,29.1 L87.4192117,29.1 L87.4192117,30.7 L74.2164787,30.7 L74.2164787,40.0666667 L89.0654377,40.0666667 L89.0654377,41.6666667 L72.5044036,41.6666667 L72.5044036,18.3333333 Z M99.296732,18.3333333 L115.693144,18.3333333 L115.693144,19.9333333 L101.008807,19.9333333 L101.008807,29.1 L114.21154,29.1 L114.21154,30.7 L101.008807,30.7 L101.008807,40.0666667 L115.857766,40.0666667 L115.857766,41.6666667 L99.296732,41.6666667 L99.296732,18.3333333 Z M133.892172,42 C132.04839,42 130.385718,41.688892 128.904107,41.0666667 C127.422496,40.4444413 125.990294,39.5111173 124.607457,38.2666667 L125.726891,36.9666667 C126.363435,37.5666697 126.994482,38.0833312 127.620051,38.5166667 C128.24562,38.9500022 128.887641,39.3055542 129.546135,39.5833333 C130.204629,39.8611125 130.896037,40.0722215 131.62038,40.2166667 C132.344723,40.3611118 133.134904,40.4333333 133.990946,40.4333333 C134.846987,40.4333333 135.637168,40.3166678 136.361511,40.0833333 C137.085854,39.8499988 137.700439,39.5277798 138.205284,39.1166667 C138.710129,38.7055535 139.10522,38.2166695 139.390567,37.65 C139.675914,37.0833305 139.818586,36.46667 139.818586,35.8 L139.818586,35.7333333 C139.818586,35.111108 139.725301,34.555558 139.538727,34.0666667 C139.352154,33.5777753 139.011938,33.1333353 138.518067,32.7333333 C138.024197,32.3333313 137.360226,31.9722238 136.526134,31.65 C135.692042,31.3277762 134.616518,31.0333347 133.299531,30.7666667 C131.916694,30.4777763 130.731423,30.1388908 129.743682,29.75 C128.755942,29.3611092 127.949299,28.9055582 127.32373,28.3833333 C126.698161,27.8611085 126.24271,27.255559 125.957362,26.5666667 C125.672015,25.8777743 125.529344,25.0888933 125.529344,24.2 L125.529344,24.1333333 C125.529344,23.2666623 125.715914,22.4611148 126.08906,21.7166667 C126.462207,20.9722185 126.978019,20.322225 127.636513,19.7666667 C128.295007,19.2111083 129.074213,18.7777793 129.974154,18.4666667 C130.874095,18.155554 131.861821,18 132.937361,18 C134.605545,18 136.048722,18.233331 137.266935,18.7 C138.485149,19.166669 139.675907,19.877773 140.839246,20.8333333 L139.752737,22.2 C138.655247,21.2444397 137.552287,20.5666687 136.443822,20.1666667 C135.335358,19.7666647 134.1446,19.5666667 132.871512,19.5666667 C132.01547,19.5666667 131.241751,19.6833322 130.550333,19.9166667 C129.858915,20.1500012 129.266279,20.4666647 128.772409,20.8666667 C128.278539,21.2666687 127.89991,21.7333307 127.636513,22.2666667 C127.373115,22.8000027 127.241419,23.3666637 127.241419,23.9666667 L127.241419,24.0333333 C127.241419,24.6555587 127.334704,25.2166642 127.521277,25.7166667 C127.70785,26.2166692 128.048067,26.6722202 128.541937,27.0833333 C129.035808,27.4944465 129.721728,27.866665 130.59972,28.2 C131.477711,28.533335 132.597134,28.844443 133.958021,29.1333333 C136.635895,29.6888917 138.567448,30.4722172 139.752737,31.4833333 C140.938025,32.4944495 141.530661,33.855547 141.530661,35.5666667 L141.530661,35.6333333 C141.530661,36.5666713 141.338603,37.4277738 140.954482,38.2166667 C140.57036,39.0055595 140.043573,39.677775 139.374105,40.2333333 C138.704636,40.7888917 137.903481,41.2222207 136.970615,41.5333333 C136.037749,41.844446 135.011611,42 133.892172,42 L133.892172,42 Z M150.115729,18.3333333 L152.025351,18.3333333 L159.268746,39.1 L166.018273,18.2666667 L167.335254,18.2666667 L174.084781,39.1 L181.328175,18.3333333 L183.106099,18.3333333 L174.743271,41.8333333 L173.360441,41.8333333 L166.610914,21.5666667 L159.861387,41.8333333 L158.478558,41.8333333 L150.115729,18.3333333 Z M208.515598,33.5666667 L202.457486,20.0666667 L196.36645,33.5666667 L208.515598,33.5666667 Z M201.667298,18.1666667 L203.313524,18.1666667 L214.046918,41.6666667 L212.17022,41.6666667 L209.239937,35.1333333 L195.64211,35.1333333 L192.711828,41.6666667 L190.933904,41.6666667 L201.667298,18.1666667 Z M231.093588,29.7666667 L222.236891,18.3333333 L224.278212,18.3333333 L232.147172,28.6 L239.983208,18.3333333 L241.991604,18.3333333 L233.167833,29.7333333 L242.320849,41.6666667 L240.279529,41.6666667 L232.081323,30.9 L223.916042,41.6666667 L221.907646,41.6666667 L231.093588,29.7666667 Z" id="BEESWAX" sketch:type="MSShapeGroup"></path>
            </g>
        </g>
    </g>
</svg>