<?xml version="1.0" encoding="UTF-8" standalone="no"?>
<svg width="272px" height="272px" viewBox="0 0 272 272" version="1.1" xmlns="http://www.w3.org/2000/svg" xmlns:xlink="http://www.w3.org/1999/xlink" xmlns:sketch="http://www.bohemiancoding.com/sketch/ns">
    <!-- Generator: Sketch 3.2.2 (9983) - http://www.bohemiancoding.com/sketch -->
    <title>laptop</title>
    <desc>Created with Sketch.</desc>
    <defs></defs>
    <g id="Welcome" stroke="none" stroke-width="1" fill="none" fill-rule="evenodd" sketch:type="MSPage">
        <g id="Desktop" sketch:type="MSArtboardGroup" transform="translate(-696.000000, -2085.000000)">
            <g id="Our-services" sketch:type="MSLayerGroup" transform="translate(56.000000, 1980.000000)">
                <g id="laptop" transform="translate(640.000000, 105.000000)" sketch:type="MSShapeGroup">
                    <path d="M136,0 C211.11008,0 272,60.8872 272,136 C272,211.10736 211.11008,272 136,272 C60.88992,272 0,211.10736 0,136 C0,60.8872 60.88992,0 136,0 L136,0 Z" id="Shape" fill="#EFC75E"></path>
                    <path d="M21.56144,209.44 C45.75312,247.0576 87.9512,272 136,272 C184.0488,272 226.24688,247.0576 250.43856,209.44 L21.56144,209.44 L21.56144,209.44 Z" id="Shape" fill="#923604"></path>
                    <path d="M250.43856,209.44 L21.56144,209.44 C23.3512,212.22256 25.2144,214.95888 27.2,217.6 L244.80272,217.6 C246.78288,214.95888 248.6488,212.22256 250.43856,209.44 L250.43856,209.44 Z" id="Shape" fill="#7B2B00"></path>
                    <path d="M165.43312,251.26544 C169.48592,248.89088 171.34096,247.80832 170.01904,242.43088 C167.55472,232.3968 170.90848,218.48672 173.78896,209.42912 L168.24288,209.42912 C165.31072,219.23472 161.9896,234.52112 166.09952,239.98016 C166.86112,240.98384 166.6544,242.42272 165.63168,243.17888 C164.60896,243.93504 163.16464,243.7256 162.40032,242.71648 C157.00928,235.55472 160.58064,219.1776 163.42032,209.42912 L161.04032,209.42912 C159.0112,216.13392 156.0872,227.79456 154.7952,242.63216 C153.24208,260.42912 151.3544,268.59456 142.87616,271.97824 C146.4448,271.79872 149.96448,271.4424 153.45696,270.99088 C154.14512,257.90496 160.64048,254.06432 165.43312,251.26544 L165.43312,251.26544 Z M182.65344,209.42912 L178.65232,209.42912 C175.85616,217.92912 172.18144,231.91808 174.5016,241.3456 C176.63408,250.01696 171.93392,252.77232 167.77776,255.20128 C163.38496,257.76624 158.85616,260.42368 158.1,270.3272 C160.28144,269.96544 162.44384,269.55744 164.5872,269.10048 C165.12576,266.50288 166.15664,264.13376 167.81312,262.15088 C172.37456,256.71088 178.65504,255.51952 185.04976,258.8896 C186.33088,259.56416 187.59296,260.43456 188.81696,261.44912 C190.60128,260.69024 192.3584,259.8824 194.10192,259.04736 C192.32848,256.75168 190.3592,254.44784 188.1968,252.13584 C174.45808,237.45328 178.03488,220.2656 182.65344,209.42912 L182.65344,209.42912 Z M171.36544,265.07216 C170.6664,265.9072 170.14416,266.86736 169.73072,267.90368 C174.51792,266.67696 179.19088,265.1728 183.75504,263.45104 L182.88464,262.93152 C178.41024,260.57328 174.53424,261.29408 171.36544,265.07216 L171.36544,265.07216 Z M238.65008,224.9848 C240.34736,223.0128 241.99296,221 243.576,218.93824 C243.9704,215.90544 244.4872,212.76928 245.26784,209.42912 L240.12704,209.42912 C240.21136,213.43024 239.98288,219.0552 238.65008,224.9848 L238.65008,224.9848 Z M150.20112,242.24048 C151.45504,227.81632 154.15328,216.47936 156.21776,209.43184 L150.13584,209.43184 C149.07776,218.03248 145.2208,233.43312 131.18016,241.17968 C120.96112,246.81552 117.39792,256.17232 119.16592,262.50992 C120.44976,267.10944 124.39376,269.64448 129.9888,269.47584 C146.02864,268.97808 148.10672,266.17648 150.20112,242.24048 L150.20112,242.24048 Z M232.47024,209.42912 C232.71504,211.26784 232.8728,213.26432 232.8728,215.37504 C232.8728,224.9576 229.61152,236.68896 216.1584,244.4192 C207.7808,249.22816 201.71792,247.3568 198.11392,244.93328 C191.27856,240.34736 187.44064,229.432 188.98016,218.96544 C189.51872,215.30976 190.68832,212.11104 192.33936,209.42912 L187.57936,209.42912 C183.05056,218.92192 178.61968,235.17936 191.58048,249.0296 C194.06928,251.69248 196.25616,254.33088 198.25808,256.95568 C210.31856,250.69152 221.32096,242.68112 230.93616,233.23456 C235.01616,224.88416 235.59552,215.23632 235.48128,209.42912 L232.47024,209.42912 L232.47024,209.42912 Z M102.91664,209.42912 L94.92528,209.42912 C91.70208,210.8272 87.36912,211.9424 81.52112,212.1328 C65.89472,212.6632 55.29216,214.79024 55.1888,214.80384 C53.94032,215.05952 52.72176,214.26256 52.46336,213.02496 C52.21584,211.77648 53.01008,210.5824 54.26128,210.32672 C54.4408,210.29408 56.372,209.90784 59.67408,209.42912 L48.39152,209.42912 C47.0424,217.99168 42.75296,224.44352 36.23856,228.2624 C36.90768,228.99136 37.59856,229.70128 38.284,230.41936 L38.66752,230.15824 C48.66896,223.38544 59.99776,215.7096 76.092,215.7096 C89.48256,215.7096 97.79488,212.7448 102.91664,209.42912 L102.91664,209.42912 Z M250.0088,209.42912 L249.89184,209.97584 L250.24,209.42912 L250.0088,209.42912 L250.0088,209.42912 Z M114.71872,263.72304 C112.46928,255.65824 116.63632,243.95952 128.93888,237.17584 C140.77632,230.64784 144.3776,217.25456 145.46016,209.42912 L142.5552,209.42912 C140.43904,223.36912 131.88192,229.94608 124.21968,235.82672 C114.55824,243.24416 106.20784,249.62256 108.30768,268.80128 L108.392,269.32624 C112.13744,270.10144 115.94544,270.69168 119.79424,271.15408 C117.37344,269.38608 115.6,266.88368 114.71872,263.72304 L114.71872,263.72304 Z M121.39088,232.21456 C128.82736,226.50256 135.89936,221.05168 137.87952,209.42912 L131.90368,209.42912 C129.62704,217.4096 122.32656,229.9352 99.212,237.01808 C85.71536,241.15248 73.89424,246.53808 65.24736,252.19024 C66.2864,252.82672 67.3472,253.42784 68.40528,254.03984 C72.3248,252.75872 76.60064,252.42416 80.4576,253.7624 C83.69712,254.88304 87.6656,257.57584 89.46352,263.92976 C94.0712,265.61888 98.80944,267.03872 103.63744,268.22192 C101.72256,247.37584 111.70224,239.6456 121.39088,232.21456 L121.39088,232.21456 Z M43.71856,209.42912 L36.02368,209.42912 C36.48608,211.02848 36.19776,212.772 35.12336,214.40128 C33.89664,216.26176 31.58736,217.98624 28.56,219.11776 C30.0424,221.04624 31.57376,222.92576 33.15408,224.76448 C40.46816,220.81504 42.91072,213.74848 43.71856,209.42912 L43.71856,209.42912 Z M78.9344,258.07632 C77.63968,257.63024 76.23072,257.45888 74.78368,257.49696 C77.60976,258.9304 80.47392,260.30128 83.40608,261.53888 C82.29088,259.88784 80.80032,258.72368 78.9344,258.07632 L78.9344,258.07632 Z M31.26368,211.89888 C31.84576,211.0176 31.59824,210.61232 31.50848,210.46 C31.31264,210.13632 30.89104,209.77456 30.20016,209.42912 L21.75184,209.42912 C23.01392,211.40112 24.31952,213.34048 25.67952,215.23632 C28.46752,214.45024 30.464,213.112 31.26368,211.89888 L31.26368,211.89888 Z M201.19568,232.32608 C201.73424,232.96256 203.37712,234.90192 208.1752,232.7504 C217.124,228.73296 220.24656,218.55472 217.55104,211.58064 C217.24368,210.78368 216.86288,210.07648 216.44128,209.42912 L209.77728,209.42912 C213.5064,211.79824 214.65696,214.93168 214.97248,216.84656 C215.59808,220.57568 214.02592,224.6176 211.06656,226.87248 C210.05744,227.6368 208.60768,227.45728 207.83248,226.4536 C207.05456,225.45536 207.24496,224.0192 208.25408,223.24944 C209.88064,222.01184 210.76192,219.6808 210.4192,217.5864 C210.00576,215.08944 208.00384,213.16096 204.63648,212.01856 C203.81232,211.74112 202.92288,212.27424 201.99536,213.61792 C198.86736,218.1304 197.88,228.40656 201.19568,232.32608 L201.19568,232.32608 Z M127.0784,209.42912 L121.61392,209.42912 C117.67536,215.92176 109.32496,224.81888 92.46096,227.32128 C80.47392,229.09472 65.1304,235.66624 53.56496,244.12 C55.98848,245.98048 58.4664,247.7648 61.01232,249.4648 C71.3864,242.35744 85.40256,236.46592 97.84928,232.64976 C117.80592,226.5352 124.70656,216.28896 127.0784,209.42912 L127.0784,209.42912 Z M200.70336,241.14976 C204.35904,243.59776 208.77904,243.36928 213.84368,240.45888 C228.49632,232.0432 229.27968,218.30176 227.91968,209.42912 L221.63648,209.42912 L221.85952,209.9432 C225.29488,218.83216 221.7616,231.676 210.07376,236.91472 C203.12144,240.03184 199.31072,237.2112 197.65696,235.25824 C192.93232,229.6632 194.02032,217.04784 198.1928,211.02848 C198.61712,210.41104 199.0768,209.89696 199.55552,209.42912 L198.08944,209.42912 C195.76656,211.88256 194.17536,215.37504 193.54704,219.62912 C192.27408,228.2896 195.34496,237.55392 200.70336,241.14976 L200.70336,241.14976 Z M116.0624,209.42912 L110.1736,209.42912 C105.0872,214.52912 95.132,220.28192 76.092,220.28192 C61.57808,220.28192 50.94832,227.3784 41.5752,233.72688 C44.25712,236.3408 47.03152,238.85952 49.92016,241.23952 C62.3016,231.94256 78.8936,224.70736 91.78096,222.7952 C104.86416,220.8504 112.132,214.69504 116.0624,209.42912 L116.0624,209.42912 Z" id="Shape" fill="#9B481A"></path>
                    <path d="M21.56144,209.43456 L250.43856,209.43456 C253.78688,204.22848 256.7952,198.7776 259.42,193.11456 L12.58,193.11456 C15.2048,198.7776 18.2104,204.22848 21.56144,209.43456 L21.56144,209.43456 Z" id="Shape" fill="#A34A1B"></path>
                    <path d="M231.2,182.24 L231.2,184.96 C231.2,189.46432 227.54704,193.12 223.04,193.12 L48.96,193.12 C44.45296,193.12 40.8,189.46432 40.8,184.96 L40.8,182.24 L231.2,182.24 L231.2,182.24 Z" id="Shape" fill="#F3F3F3"></path>
                    <path d="M123.76,179.52 L148.24,179.52 C150.49216,179.52 152.32,181.34784 152.32,183.6 C152.32,185.85216 150.49216,187.68 148.24,187.68 L123.76,187.68 C121.50784,187.68 119.68,185.85216 119.68,183.6 C119.68,181.34784 121.50784,179.52 123.76,179.52 L123.76,179.52 Z" id="Shape" fill="#D5D5D5"></path>
                    <path d="M65.28,76.16 L206.72,76.16 C209.72288,76.16 212.16,78.5944 212.16,81.6 L212.16,182.24 L59.84,182.24 L59.84,81.6 C59.84,78.5944 62.27712,76.16 65.28,76.16 L65.28,76.16 Z" id="Shape" fill="#36434F"></path>
                    <path d="M68,84.32 L204,84.32 L204,174.08 L68,174.08 L68,84.32 L68,84.32 Z" id="Shape" fill="#465765"></path>
                    <path d="M103.36,163.2 L168.64,163.2 C173.14704,163.2 176.8,166.85024 176.8,171.36 L176.8,174.08 L94.9008,174.0528 L95.2,171.36 C95.2,166.85024 98.85296,163.2 103.36,163.2 L103.36,163.2 Z" id="Shape" fill="#7E8A94"></path>
                    <path d="M111.52,157.76 C114.52288,157.76 116.96,160.1944 116.96,163.2 C116.96,166.20288 114.52288,168.64 111.52,168.64 C108.51712,168.64 106.08,166.20288 106.08,163.2 C106.08,160.1944 108.51712,157.76 111.52,157.76 L111.52,157.76 Z" id="Shape" fill="#E4E7E7"></path>
                    <path d="M127.84,157.76 C130.84288,157.76 133.28,160.1944 133.28,163.2 C133.28,166.20288 130.84288,168.64 127.84,168.64 C124.83712,168.64 122.4,166.20288 122.4,163.2 C122.4,160.1944 124.83712,157.76 127.84,157.76 L127.84,157.76 Z" id="Shape" fill="#EFC75E"></path>
                    <path d="M144.16,157.76 C147.16288,157.76 149.6,160.1944 149.6,163.2 C149.6,166.20288 147.16288,168.64 144.16,168.64 C141.15712,168.64 138.72,166.20288 138.72,163.2 C138.72,160.1944 141.15712,157.76 144.16,157.76 L144.16,157.76 Z M160.48,157.76 C163.48288,157.76 165.92,160.1944 165.92,163.2 C165.92,166.20288 163.48288,168.64 160.48,168.64 C157.47712,168.64 155.04,166.20288 155.04,163.2 C155.04,160.1944 157.47712,157.76 160.48,157.76 L160.48,157.76 Z" id="Shape" fill="#E4E7E7"></path>
                    <g id="Group" transform="translate(19.040000, 209.440000)" fill="#88411A">
                        <path d="M165.4576,8.16 L170.20944,8.16 C170.81872,5.07824 171.85776,2.33104 173.29664,0 L168.53936,0 C167.416,2.34736 166.30352,5.11632 165.4576,8.16 L165.4576,8.16 Z M185.59648,2.57584 C184.77232,2.2984 183.88288,2.83152 182.95536,4.1752 C182.22096,5.23328 181.61984,6.6232 181.14928,8.16 L191.3792,8.16 L191.3792,8.14368 C190.96576,5.64672 188.96656,3.71824 185.59648,2.57584 L185.59648,2.57584 Z M174.93952,8.16 L176.3784,8.16 C177.00128,5.63584 177.9424,3.332 179.1528,1.58848 C179.5744,0.97648 180.03136,0.4624 180.50736,0 L179.044,0 C177.11008,2.04544 175.72288,4.83344 174.93952,8.16 L174.93952,8.16 Z M202.81952,0.50592 C203.72528,2.84784 204.13056,5.47264 204.04624,8.16 L209.25776,8.16 C209.44544,5.21696 209.2496,2.42352 208.87696,0 L202.59648,0 L202.81952,0.50592 L202.81952,0.50592 Z M195.93248,7.40656 L196.0032,8.16 L199.4032,8.16 C199.50112,6.04656 199.22368,3.97936 198.51104,2.14064 C198.20368,1.34912 197.8256,0.64192 197.40672,0 L190.74816,0 C194.46912,2.36912 195.61696,5.4944 195.93248,7.40656 L195.93248,7.40656 Z M6.63952,5.79632 C9.4248,5.01024 11.424,3.672 12.22368,2.45888 C12.80576,1.5776 12.55824,1.17232 12.46848,1.02 C12.27264,0.70176 11.85376,0.34 11.17104,0 L2.71728,0 C3.97664,1.96656 5.28224,3.90048 6.63952,5.79632 L6.63952,5.79632 Z M97.01424,0 L91.12544,0 C88.22592,2.90496 83.73248,6.01392 76.89168,8.16 L87.87504,8.16 C92.0312,5.66848 94.9824,2.72 97.01424,0 L97.01424,0 Z M24.67856,0 L16.9864,0 C17.44336,1.59392 17.15776,3.33744 16.08336,4.96128 C15.31632,6.12 14.08688,7.21344 12.5664,8.16 L21.5968,8.16 C23.3648,5.24416 24.25424,2.25216 24.67856,0 L24.67856,0 Z M83.86304,0 L75.86352,0 C72.64032,1.39264 68.31824,2.5024 62.48112,2.6928 C46.85472,3.2232 36.25216,5.35024 36.1488,5.36384 C34.90032,5.61952 33.68176,4.82256 33.42336,3.58496 C33.17584,2.33648 33.97008,1.1424 35.22128,0.88672 C35.4008,0.85408 37.31568,0.47328 40.5824,0 L29.35152,0 C28.87824,2.992 28.0296,5.70656 26.86816,8.16 L43.62336,8.16 C47.72784,6.98496 52.16688,6.2696 57.052,6.2696 C70.4344,6.2696 78.73856,3.31024 83.86304,0 L83.86304,0 Z M147.04864,8.16 L152.46144,8.16 C153.17952,5.20608 153.97648,2.42352 154.74624,0 L149.20016,0 C148.46576,2.45344 147.70688,5.25504 147.04864,8.16 L147.04864,8.16 Z M216.09312,8.16 C216.4168,5.06736 216.48752,2.24128 216.44128,0 L213.43024,0 C213.67504,1.83328 213.8328,3.82432 213.8328,5.93504 C213.8328,6.664 213.8056,7.40656 213.76752,8.16 L216.09312,8.16 L216.09312,8.16 Z M226.22512,0 L221.08704,0 C221.136,2.26848 221.05168,5.08912 220.7552,8.16 L224.73728,8.16 C225.1072,5.54064 225.55872,2.85328 226.22512,0 L226.22512,0 Z M95.69776,8.16 L103.46336,8.16 C105.78624,5.23872 107.19792,2.4072 108.03568,0 L102.56848,0 C101.0344,2.5296 98.81488,5.41824 95.69776,8.16 L95.69776,8.16 Z M230.96608,0 L230.85184,0.53584 L231.19456,0 L230.96608,0 L230.96608,0 Z M109.13728,8.16 L116.19024,8.16 C117.37616,5.79632 118.30368,3.13344 118.83952,0 L112.86368,0 C112.17552,2.39632 111.02224,5.21152 109.13728,8.16 L109.13728,8.16 Z M129.472,8.16 L135.05072,8.16 C135.77968,5.03744 136.51136,2.27392 137.17504,0 L131.09584,0 C130.80752,2.31744 130.30704,5.13808 129.472,8.16 L129.472,8.16 Z M139.80528,8.16 L142.29408,8.16 C142.936,5.1952 143.67856,2.39632 144.3776,0 L141.9976,0 C141.33392,2.19504 140.57504,4.96672 139.80528,8.16 L139.80528,8.16 Z M121.24944,8.16 L124.61408,8.16 C125.53616,5.16256 126.09376,2.33104 126.41744,0 L123.51248,0 C123.04464,3.05456 122.25856,5.73648 121.24944,8.16 L121.24944,8.16 Z M157.23504,8.16 L160.85808,8.16 C161.60608,5.18976 162.57712,2.42896 163.61344,0 L159.61232,0 C158.8344,2.35824 157.99936,5.16256 157.23504,8.16 L157.23504,8.16 Z" id="Shape"></path>
                    </g>
                    <g id="Group" transform="translate(10.880000, 190.400000)" fill="#AC5C32">
                        <path d="M90.3448,2.72 L80.648,2.72 C76.7992,4.84432 72.2432,6.81088 66.77872,8.4728 C56.93504,11.45936 47.96992,15.10416 40.46544,19.02912 L74.37296,19.02912 C77.85728,12.23456 83.52576,7.9152 89.09088,3.6856 L90.3448,2.72 L90.3448,2.72 Z M118.0752,13.68432 C118.41792,9.78384 118.86944,6.13632 119.38352,2.72 L110.01584,2.72 C107.29584,6.51712 103.71632,10.0096 98.94,12.61808 C95.60256,14.44048 92.98592,16.65456 91.01392,19.02912 L117.55296,19.02912 C117.72976,17.36176 117.90656,15.6128 118.0752,13.68432 L118.0752,13.68432 Z M138.01552,13.872 C137.17504,10.48832 137.04448,6.65312 137.29744,2.72 L132.1512,2.72 C132.09952,6.38656 132.61632,9.51456 134.0688,11.42672 C134.83312,12.43584 134.62368,13.86384 133.59552,14.62 C132.56736,15.368 131.11488,15.16128 130.34784,14.15216 C128.25616,11.39952 127.51632,7.2896 127.54352,2.72 L124.08368,2.72 C123.53696,6.25328 123.0528,10.03136 122.69648,14.07328 C122.54144,15.82768 122.38368,17.45696 122.21504,19.02912 L137.90944,19.02912 C138.53504,17.84048 138.61936,16.30912 138.01552,13.872 L138.01552,13.872 Z M65.40784,4.11808 C66.86576,3.67744 68.23664,3.20416 69.55856,2.72 L45.22,2.72 C34.952,6.47088 24.3304,12.32432 16.41248,19.02912 L31.21472,19.02912 C41.28688,12.77584 53.99744,7.58064 65.40784,4.11808 L65.40784,4.11808 Z M2.2576,4.02288 L4.24592,2.72 L1.66464,2.72 L2.2576,4.02288 L2.2576,4.02288 Z M96.6824,8.63328 C99.6336,7.0176 102.07072,4.98848 104.0944,2.72 L97.69424,2.72 C95.79296,4.352 93.83728,5.83712 91.93328,7.2896 C87.176,10.90176 82.7424,14.28544 79.69328,19.02912 L85.3672,19.02912 C87.80432,15.12592 91.52256,11.44848 96.6824,8.63328 L96.6824,8.63328 Z M33.73344,2.72 L12.51744,2.72 C11.14384,3.61216 9.80016,4.5152 8.48368,5.39648 C7.09104,6.33216 5.71472,7.22976 4.3384,8.11648 C6.18528,11.6552 8.18448,15.096 10.33056,18.44432 C16.60288,12.45216 24.95872,6.97952 33.73344,2.72 L33.73344,2.72 Z M211.36032,2.72 L205.20496,2.72 C203.68992,6.78912 201.54112,10.7848 198.47296,14.27456 C197.28432,15.62912 196.30512,17.26656 195.44288,19.02912 L214.10752,19.02912 C212.58432,14.20112 211.56704,8.81824 211.36032,2.72 L211.36032,2.72 Z M243.7528,11.94896 C245.06384,9.63152 246.28512,7.25152 247.45744,4.84704 C247.38672,4.1344 247.35408,3.42448 247.35408,2.72272 L241.6312,2.72272 C241.81344,5.5352 242.47984,8.6496 243.7528,11.94896 L243.7528,11.94896 Z M231.9208,19.02912 L239.50144,19.02912 L240.8016,16.86672 C238.32368,11.79392 237.16496,7.00672 236.9392,2.72 L227.2016,2.72 C227.48176,7.8744 229.20352,13.5456 231.9208,19.02912 L231.9208,19.02912 Z M152.67088,19.02912 C148.93632,13.66256 147.19008,8.10016 146.72496,2.72 L141.95136,2.72 C141.69296,6.31584 141.78272,9.792 142.52528,12.78128 C143.15632,15.33536 143.1808,17.36176 142.80816,19.02912 L152.67088,19.02912 L152.67088,19.02912 Z M222.48784,2.72 L215.9544,2.72 C216.16656,8.87264 217.26544,14.24736 218.9192,19.02912 L226.67664,19.02912 C224.20688,13.56736 222.70544,7.97504 222.48784,2.72 L222.48784,2.72 Z M190.40544,19.02912 C191.59136,16.0752 193.08464,13.43408 194.96144,11.29888 C197.22992,8.71216 198.92448,5.76912 200.20832,2.72 L197.56448,2.72 C195.01856,7.55888 190.91136,12.16656 184.43776,15.84672 C176.00576,20.6448 169.91024,18.77344 166.28176,16.3608 C162.14736,13.60816 159.1336,8.56256 157.70016,2.71728 L151.30544,2.71728 C151.89024,8.12464 153.9792,13.72512 158.4944,19.0264 L190.40544,19.0264 L190.40544,19.02912 Z M165.81936,6.72112 C164.8864,5.62768 164.18464,4.25136 163.68416,2.72 L162.50368,2.72 C163.74128,6.99584 165.95808,10.64064 168.8848,12.59088 C172.56496,15.03344 177.00944,14.80496 182.10672,11.90544 C186.74432,9.25888 189.99744,6.0928 192.24144,2.72 L186.02896,2.72 C184.03248,4.99936 181.48112,6.96048 178.31504,8.37216 C171.3192,11.48112 167.484,8.67136 165.81936,6.72112 L165.81936,6.72112 Z M176.40288,4.21872 C177.3576,3.7944 178.20624,3.26672 179.02768,2.72 L168.73248,2.72 C168.9392,3.0872 169.12688,3.48976 169.38256,3.7944 C169.92384,4.43088 171.57216,6.3648 176.40288,4.21872 L176.40288,4.21872 Z" id="Shape"></path>
                    </g>
                </g>
            </g>
        </g>
    </g>
</svg>