<?xml version="1.0" encoding="UTF-8" standalone="no"?>
<svg width="273px" height="273px" viewBox="0 0 273 273" version="1.1" xmlns="http://www.w3.org/2000/svg" xmlns:xlink="http://www.w3.org/1999/xlink" xmlns:sketch="http://www.bohemiancoding.com/sketch/ns">
    <!-- Generator: Sketch 3.2.2 (9983) - http://www.bohemiancoding.com/sketch -->
    <title>watch</title>
    <desc>Created with Sketch.</desc>
    <defs></defs>
    <g id="Welcome" stroke="none" stroke-width="1" fill="none" fill-rule="evenodd" sketch:type="MSPage">
        <g id="Desktop" sketch:type="MSArtboardGroup" transform="translate(-376.000000, -2087.000000)">
            <g id="Our-services" sketch:type="MSLayerGroup" transform="translate(56.000000, 1980.000000)">
                <g id="watch" transform="translate(320.000000, 105.000000)" sketch:type="MSShapeGroup">
                    <path d="M136.03501,2.66666667 C60.9249299,2.66666667 0.035009901,63.5559778 0.035009901,138.665307 C0.035009901,213.774636 60.9249299,274.666667 136.03501,274.666667 C211.14509,274.666667 272.03501,213.774636 272.03501,138.665307 C272.03773,63.5532578 211.14509,2.66666667 136.03501,2.66666667 L136.03501,2.66666667 Z" id="Shape" fill="#91D8F0"></path>
                    <path d="M94.2924356,263.218667 C102.929109,265.906667 111.934733,267.754667 121.223129,268.666667 L121.223129,3.33066667 C111.934733,4.24533333 102.929109,6.09333333 94.2924356,8.77866667 L94.2924356,263.218667 L94.2924356,263.218667 Z" id="Shape" fill="#E2574C"></path>
                    <path d="M148.156515,3.33066667 C143.726416,2.896 139.237069,2.664 134.691168,2.664 C130.145267,2.664 125.655921,2.89333333 121.225822,3.33066667 L121.225822,268.666667 C125.655921,269.104 130.145267,269.333333 134.691168,269.333333 C139.237069,269.333333 143.729109,269.104 148.156515,268.666667 L148.156515,3.33066667 L148.156515,3.33066667 Z" id="Shape" fill="#E4E7E7"></path>
                    <path d="M148.156515,3.34933333 L148.156515,268.648 C157.439525,267.733333 166.455921,265.906667 175.087208,263.218667 L175.087208,8.77866667 C166.455921,6.09333333 157.439525,4.26666667 148.156515,3.34933333 L148.156515,3.34933333 Z" id="Shape" fill="#324D5B"></path>
                    <path d="M207.40404,135.994667 C207.40404,115.992 199.160554,97.9013333 185.859485,84.8506667 L185.859485,66.6666667 C185.859485,63.6453333 183.354931,61.3306667 180.473347,61.3306667 L177.780277,61.3306667 C176.29101,61.3306667 175.087208,62.5253333 175.087208,63.9973333 L175.087208,76.1306667 C163.531248,68.4693333 149.640396,63.9973333 134.691168,63.9973333 C119.741941,63.9973333 105.851089,68.4693333 94.2951287,76.1306667 L94.2951287,63.9973333 C94.2951287,62.5253333 93.0886337,61.3306667 91.6020594,61.3306667 L88.9089901,61.3306667 C86.0247129,61.3306667 83.5228515,63.6453333 83.5228515,66.6666667 L83.5228515,84.8506667 C70.2217822,97.9013333 61.978297,115.992 61.978297,135.994667 C61.978297,156 70.2217822,174.093333 83.5228515,187.141333 L83.5228515,205.330667 C83.5228515,208.474667 86.0031683,210.661333 88.9089901,210.661333 L91.6020594,210.661333 C93.0886337,210.661333 94.2951287,209.469333 94.2951287,207.994667 L94.2951287,195.864 C105.851089,203.522667 119.741941,207.994667 134.691168,207.994667 C149.640396,207.994667 163.531248,203.522667 175.087208,195.864 L175.087208,207.994667 C175.087208,209.469333 176.29101,210.661333 177.780277,210.661333 L180.473347,210.661333 C183.376475,210.661333 185.859485,208.474667 185.859485,205.330667 L185.859485,187.141333 C199.160554,174.093333 207.40404,156 207.40404,135.994667 L207.40404,135.994667 Z" id="Shape" fill="#F5F5F5"></path>
                    <path d="M134.688475,74.6666667 C168.901228,74.6666667 196.629069,102.125333 196.629069,136 C196.629069,169.874667 168.901228,197.333333 134.688475,197.333333 C100.478416,197.333333 72.7478812,169.869333 72.7478812,135.997333 C72.7478812,102.125333 100.481109,74.6666667 134.688475,74.6666667 L134.688475,74.6666667 Z" id="Shape" fill="#CCD0D2"></path>
                    <path d="M146.257901,120.733333 L103.203802,163.370667 C102.142733,164.418667 102.142733,166.125333 103.203802,167.178667 C104.267564,168.226667 105.985743,168.226667 107.049505,167.178667 L150.103604,124.546667 C151.167366,123.496 151.167366,121.792 150.103604,120.736 C149.039842,119.688 147.31897,119.688 146.257901,120.733333 L146.257901,120.733333 Z" id="Shape" fill="#DE6E65"></path>
                    <path d="M134.680396,146.688 C128.723327,146.688 123.897347,141.912 123.897347,136.013333 C123.897347,133.744 124.621782,131.650667 125.841743,129.922667 C123.043644,131.853333 121.204277,135.050667 121.204277,138.68 C121.204277,144.578667 126.030257,149.354667 131.987327,149.354667 C135.652594,149.354667 138.881584,147.533333 140.828673,144.765333 C139.083564,145.970667 136.966812,146.688 134.680396,146.688 L134.680396,146.688 Z" id="Shape" fill="#AEB2B4"></path>
                    <path d="M134.688475,133.333333 L177.777584,133.333333 C179.266851,133.333333 180.470653,134.525333 180.470653,135.997333 C180.470653,137.469333 179.266851,138.664 177.777584,138.664 L134.688475,138.664 C133.199208,138.664 131.995406,137.469333 131.995406,135.997333 C131.995406,134.525333 133.199208,133.333333 134.688475,133.333333 L134.688475,133.333333 Z M116.337901,110.768 L138.547644,132.76 C140.513584,134.706667 140.513584,137.869333 138.547644,139.816 C136.581703,141.762667 133.387723,141.762667 131.421782,139.816 L109.21204,117.821333 C107.243406,115.874667 107.243406,112.712 109.21204,110.765333 C111.17798,108.818667 114.366574,108.818667 116.337901,110.768 L116.337901,110.768 Z" id="Shape" fill="#324D5B"></path>
                    <path d="M134.680396,125.333333 C140.632079,125.333333 145.460752,130.114667 145.460752,136.013333 C145.460752,141.912 140.632079,146.688 134.680396,146.688 C128.723327,146.688 123.897347,141.912 123.897347,136.013333 C123.897347,130.114667 128.723327,125.333333 134.680396,125.333333 L134.680396,125.333333 Z" id="Shape" fill="#E4E7E7"></path>
                    <path d="M134.688475,130.666667 C137.661624,130.666667 140.074614,133.053333 140.074614,135.997333 C140.074614,138.944 137.661624,141.333333 134.688475,141.333333 C131.715327,141.333333 129.302337,138.944 129.302337,135.997333 C129.302337,133.053333 131.715327,130.666667 134.688475,130.666667 L134.688475,130.666667 Z" id="Shape" fill="#324D5B"></path>
                    <path d="M125.410851,141.381333 L122.717782,144.048 C123.652277,145.626667 124.969188,146.930667 126.560792,147.856 L129.253861,145.189333 C127.662257,144.264 126.345347,142.957333 125.410851,141.381333 L125.410851,141.381333 Z" id="Shape" fill="#D96860"></path>
                    <path d="M134.688475,74.6666667 C116.900752,74.6666667 100.871604,82.104 89.5768713,93.9973333 C100.658851,83.6693333 115.578455,77.3333333 131.995406,77.3333333 C166.208158,77.3333333 193.936,104.792 193.936,138.666667 C193.936,154.925333 187.534574,169.696 177.104317,180.674667 C189.118099,169.488 196.629069,153.616 196.629069,136 C196.631762,102.125333 168.901228,74.6666667 134.688475,74.6666667 L134.688475,74.6666667 Z" id="Shape" fill="#B7BBBD"></path>
                </g>
            </g>
        </g>
    </g>
</svg>