<?xml version="1.0" encoding="UTF-8" standalone="no"?>
<svg width="272px" height="272px" viewBox="0 0 272 272" version="1.1" xmlns="http://www.w3.org/2000/svg" xmlns:xlink="http://www.w3.org/1999/xlink" xmlns:sketch="http://www.bohemiancoding.com/sketch/ns">
    <!-- Generator: Sketch 3.2.2 (9983) - http://www.bohemiancoding.com/sketch -->
    <title>wrench</title>
    <desc>Created with Sketch.</desc>
    <defs></defs>
    <g id="Welcome" stroke="none" stroke-width="1" fill="none" fill-rule="evenodd" sketch:type="MSPage">
        <g id="Desktop" sketch:type="MSArtboardGroup" transform="translate(-56.000000, -2085.000000)">
            <g id="Our-services" sketch:type="MSLayerGroup" transform="translate(56.000000, 1980.000000)">
                <g id="wrench" transform="translate(0.000000, 105.000000)" sketch:type="MSShapeGroup">
                    <path d="M136,0 C211.11008,0 272,60.88992 272,136 C272,211.11008 211.11008,272 136,272 C60.88992,272 0,211.11008 0,136 C0,60.88992 60.88992,0 136,0 L136,0 Z" id="Shape" fill="#E2574C"></path>
                    <path d="M201.22288,104.14608 C199.58,103.81152 197.86912,104.32016 196.67504,105.51152 L157.98848,144.9624 C154.088,148.86832 140.97488,146.01504 132.14848,142.57152 C128.69952,133.74512 125.84896,120.62928 129.73856,116.73152 L169.38256,78.23264 C170.57392,77.044 171.09072,75.33856 170.748,73.69568 C170.408,72.04736 169.252,70.68464 167.69888,70.06448 C143.00128,60.24256 114.89552,66.03344 96.10848,84.81232 C79.52192,101.39888 73.37472,124.6576 78.24352,146.27888 C77.61792,156.99568 67.87488,169.55392 62.83744,174.67568 L24.1264,213.3024 C34.04352,227.63136 46.63712,239.95568 61.19184,249.56272 L98.06688,212.75568 C103.2376,207.66112 117.20208,198.0568 127.84,196.9552 C129.4448,197.05856 132.76592,197.27888 133.50304,197.44208 L133.4976,197.37952 C154.24032,200.39328 175.19248,193.62048 190.09536,178.73664 C208.8824,159.97952 214.68416,131.88464 204.85952,107.20336 C204.23936,105.63664 202.87392,104.4888 201.22288,104.14608 L201.22288,104.14608 Z" id="Shape" fill="#CD4F45"></path>
                    <path d="M201.22288,101.42608 C199.58,101.09152 197.86912,101.60016 196.67504,102.79152 L157.98848,142.2424 C154.088,146.14832 140.97488,143.29504 132.14848,139.85152 C128.69952,131.02512 125.84896,117.90928 129.73856,114.01152 L169.38256,75.51264 C170.57392,74.324 171.09072,72.61856 170.748,70.97568 C170.408,69.32736 169.252,67.96464 167.69888,67.34448 C143.00128,57.52256 114.89552,63.31344 96.10848,82.09232 C79.52192,98.67888 73.37472,121.9376 78.24352,143.55888 C77.61792,154.27568 67.87488,166.83392 62.83744,171.95568 L23.00576,211.6976 C32.7216,226.17072 45.14384,238.67184 59.54896,248.48016 L98.06416,210.03296 C103.23488,204.9384 117.19936,195.33408 127.83728,194.23248 C129.44208,194.33584 132.7632,194.55616 133.50032,194.71936 L133.49488,194.6568 C154.2376,197.67056 175.18976,190.89776 190.09264,176.01392 C208.87968,157.2568 214.68144,129.16192 204.8568,104.48064 C204.23936,102.91664 202.87392,101.7688 201.22288,101.42608 L201.22288,101.42608 Z" id="Shape" fill="#EDEDED"></path>
                    <g id="Group" transform="translate(38.080000, 103.360000)" fill="#E1E1E1">
                        <path d="M170.98464,17.83232 C171.33008,20.78624 171.49328,23.74832 171.44704,26.69952 C171.24848,19.00192 169.73344,11.26896 166.7768,3.84336 C166.15664,2.27936 164.79392,1.1288 163.14016,0.7888 C161.49728,0.45424 159.7864,0.96288 158.59232,2.15424 L119.90848,41.6024 C116.008,45.50832 102.89488,42.65504 94.06848,39.21152 C93.76656,38.43904 93.47008,37.6312 93.17904,36.79888 L1.47152,128.50912 C7.58336,134.65904 14.28,140.22416 21.47168,145.12016 L59.98688,106.67296 C65.1576,101.5784 79.12208,91.97408 89.76,90.87248 C91.3648,90.97584 94.68592,91.19616 95.42304,91.35936 L95.4176,91.2968 C116.16032,94.31056 137.11248,87.53776 152.01536,72.65392 C166.6544,58.03664 173.36464,37.7536 170.98464,17.83232 L170.98464,17.83232 Z M168.62368,6.46 L168.22656,5.1952 L168.62368,6.46 L168.62368,6.46 Z M170.83504,16.60288 C170.72896,15.81408 170.60928,15.03072 170.47056,14.24736 C170.60656,15.03072 170.72896,15.8168 170.83504,16.60288 L170.83504,16.60288 Z M169.96192,11.6688 L169.48864,9.61792 L169.96192,11.6688 L169.96192,11.6688 Z" id="Shape"></path>
                    </g>
                    <path d="M96.10848,84.81232 C114.89552,66.03344 143.00128,60.24256 167.69888,70.06448 C169.15136,70.64384 170.2312,71.88688 170.64464,73.39376 C170.87584,72.61856 170.91936,71.79168 170.748,70.97568 C170.408,69.32736 169.252,67.96464 167.69888,67.34448 C143.00128,57.52256 114.89552,63.31344 96.10848,82.09232 C83.02256,95.17824 76.46192,112.42032 76.65776,129.73312 C77.14464,113.3424 83.708,97.2128 96.10848,84.81232 L96.10848,84.81232 Z M62.83744,171.95568 L23.00576,211.6976 L24.12368,213.3024 L62.83472,174.67568 C67.86944,169.5512 77.61248,156.99568 78.2408,146.27888 L78.05312,145.29696 C76.57344,155.60032 67.60288,167.10592 62.83744,171.95568 L62.83744,171.95568 Z" id="Shape" fill="#F4F4F4"></path>
                    <path d="M78.09392,184.19024 L35.1016,227.17984 C38.148,230.5472 41.36032,233.76768 44.72768,236.8168 L87.72544,193.81904 C90.3856,191.15616 90.3856,186.84768 87.72544,184.18752 C85.06528,181.52736 80.75408,181.53008 78.09392,184.19024 L78.09392,184.19024 Z" id="Shape" fill="#CCD0D2"></path>
                    <path d="M78.09392,184.19024 L35.1016,227.17984 L36.41808,228.58608 L78.09392,186.91024 C80.7568,184.25008 85.06528,184.25008 87.72544,186.91024 C88.70736,187.89216 89.31936,189.09984 89.57776,190.36736 C90.0184,188.20224 89.40368,185.8712 87.72544,184.19024 C85.06528,181.53008 80.75408,181.53008 78.09392,184.19024 L78.09392,184.19024 Z" id="Shape" fill="#B8BCBE"></path>
                </g>
            </g>
        </g>
    </g>
</svg>